<?xml version="1.0" encoding="UTF-8" standalone="no"?>
<svg
   xmlns:dc="http://purl.org/dc/elements/1.1/"
   xmlns:cc="http://creativecommons.org/ns#"
   xmlns:rdf="http://www.w3.org/1999/02/22-rdf-syntax-ns#"
   xmlns:svg="http://www.w3.org/2000/svg"
   xmlns="http://www.w3.org/2000/svg"
   viewBox="0 0 335.49866 254.94667"
   height="254.94667"
   width="335.49866"
   xml:space="preserve"
   id="svg2"
   version="1.1"><metadata
     id="metadata8"><rdf:RDF><cc:Work
         rdf:about=""><dc:format>image/svg+xml</dc:format><dc:type
           rdf:resource="http://purl.org/dc/dcmitype/StillImage" /></cc:Work></rdf:RDF></metadata><defs
     id="defs6" /><g
     transform="matrix(1.3333333,0,0,-1.3333333,0,254.94667)"
     id="g10"><path
       id="path12"
       style="fill:#231f20;fill-opacity:1;fill-rule:nonzero;stroke:none"
       d="M 0,0 H 251.624 V 191.21 H 0 Z" /><g
       transform="translate(79.2261,66.9541)"
       id="g14"><path
         id="path16"
         style="fill:#ffffff;fill-opacity:1;fill-rule:nonzero;stroke:none"
         d="m 0,0 v 27.935 h 0.003 v -0.004 h 12.279 l 0.009,-15.66 h 1.563 l -0.003,15.66 h 0.003 27.833 0.002 l -10e-4,-15.66 h 1.573 v 15.664 h 16.84 L 52.675,12.259 h 1.658 l 13.864,29.488 0.005,-0.007 0.005,0.011 13.875,-29.492 h 1.657 l -7.427,15.676 h 16.86 L 93.172,0 Z M 93.172,57.301 V 29.369 H 75.632 L 68.207,45.045 60.781,29.369 H 43.261 V 45.031 H 41.688 V 29.369 H 13.851 V 45.017 H 12.282 V 29.369 H 0 V 57.301 Z M 94.607,29.369 V 58.736 H -1.434 V 29.369 H -13.705 V 27.935 H -1.434 V -1.433 h 96.041 v 29.368 h 12.269 v 1.434 0 z" /></g><g
       transform="translate(154.9375,96.4482)"
       id="g18"><path
         id="path20"
         style="fill:#ffffff;fill-opacity:1;fill-rule:nonzero;stroke:none"
         d="M 0,0 H 17.336 V 27.682 H -75.586 V 0 h 12.031 v 15.647 h 1.82 V 0 h 27.587 v 15.662 h 1.823 V 0 h 17.315 l 7.505,15.843 z M 17.586,-0.25 H -0.158 L -7.505,15.259 -14.852,-0.25 h -17.723 v 15.662 h -1.323 V -0.25 h -28.087 v 15.647 h -1.32 V -0.25 H -75.836 V 27.932 H 17.586 Z M -75.586,-29.369 H 17.336 V -1.685 H 0.798 L 8.226,-17.36 H 6.291 L 6.257,-17.288 -7.509,11.972 -21.3,-17.36 h -1.933 l 0.084,0.178 7.341,15.497 h -16.517 v -15.664 h -1.823 l 0.001,15.661 h -27.588 l 0.002,-15.661 h -1.812 l -0.01,15.661 h -12.031 z m 93.172,-0.25 h -93.422 v 28.184 l 12.531,-0.003 0.01,-15.661 h 1.312 l -0.002,15.661 h 28.086 l 0.002,-0.125 -0.001,-15.536 h 1.323 v 15.664 h 17.162 l -0.084,-0.178 -7.342,-15.497 h 1.381 l 13.924,29.617 10e-4,-10e-4 0.018,0.043 0.123,-0.239 13.841,-29.42 h 1.38 L 0.403,-1.435 H 17.586 Z M -77.02,-30.802 H 18.771 V -1.435 H 31.04 V -0.25 H 18.771 V 29.117 H -77.02 V -0.25 h -12.271 v -1.185 h 12.271 z m 96.041,-0.25 H -77.27 V -1.685 H -89.541 V 0 H -77.27 V 29.367 H 19.021 V 0 H 31.29 V -1.685 H 19.021 Z" /></g></g></svg>